# xmcd
#
# Track frame offsets:
#	150
#	22620
#	47784
#	73512
#	103182
#	120432
#	147026
#	172221
#	197913
#	226068
#	243027
#	265746
#
# Disc length: 3703 seconds
#
# Revision: 1
# Processed by: cddbd v1.5.2PL0 Copyright (c) Steve Scherf et al.
# Submitted via: audiograbber 1.83.01
#
DISCID=990e750c
DTITLE=Hermi Baur - i mis Herz
DYEAR=2009
DGENRE=Folklore
TTITLE0=Mein geliebtes Kind
TTITLE1=Wohin?
TTITLE2=Bei Dir finde ich Frieden
TTITLE3=I mis Herz
TTITLE4=Jesus, Du bisch guet
TTITLE5=Deine Gegenwart tut mir so gut
TTITLE6=Jesus, Gottes Sohn
TTITLE7=Freu Dich mit
TTITLE8=Ich steh auf aus den Sorgen
TTITLE9=s'Buchfinkli
TTITLE10=Tanzen will ich fuer Dich
TTITLE11=Mein geliebtes Kind - Reprise
EXTD=Schleife Verlag, Switzerland
EXTT0=
EXTT1=
EXTT2=
EXTT3=
EXTT4=
EXTT5=
EXTT6=
EXTT7=
EXTT8=
EXTT9=
EXTT10=
EXTT11=
PLAYORDER=
